<?xml version="1.0" encoding="UTF-8"?>
<!DOCTYPE svg PUBLIC "-//W3C//DTD SVG 1.1//EN" "http://www.w3.org/Graphics/SVG/1.1/DTD/svg11.dtd">
<svg xmlns="http://www.w3.org/2000/svg" version="1.1" width="64px" height="64px" style="shape-rendering:geometricPrecision; text-rendering:geometricPrecision; image-rendering:optimizeQuality; fill-rule:evenodd; clip-rule:evenodd" xmlns:xlink="http://www.w3.org/1999/xlink">
<g><path style="opacity:0.844" fill="#135a63" d="M 23.5,54.5 C 23.81,53.2617 24.31,53.2617 25,54.5C 25.4643,53.9056 25.631,53.2389 25.5,52.5C 27.4024,53.5109 29.4024,53.6776 31.5,53C 35.3341,50.3318 38.6675,47.1652 41.5,43.5C 42.1667,43.5 42.5,43.1667 42.5,42.5C 43.1667,42.5 43.5,42.1667 43.5,41.5C 44.8333,40.8333 44.8333,40.1667 43.5,39.5C 42.5,37.8333 41.1667,36.5 39.5,35.5C 38.8333,34.1667 37.8333,33.1667 36.5,32.5C 35.5,30.8333 34.1667,29.5 32.5,28.5C 31.8333,27.1667 30.8333,26.1667 29.5,25.5C 28.5,23.8333 27.1667,22.5 25.5,21.5C 24.8333,20.1667 23.8333,19.1667 22.5,18.5C 22.1667,17.8333 21.8333,17.1667 21.5,16.5C 22.3543,15.3684 22.3543,14.035 21.5,12.5C 30.6317,21.131 39.6317,29.9644 48.5,39C 49.635,39.7494 50.635,39.5827 51.5,38.5C 42.1453,28.8127 32.812,19.146 23.5,9.5C 23.5,8.5 23.5,7.5 23.5,6.5C 26.0562,7.54341 28.2228,9.21008 30,11.5C 33.1667,8.33333 36.3333,5.16667 39.5,2C 45.6667,0.166667 47.8333,2.33333 46,8.5C 42.8333,11.6667 39.6667,14.8333 36.5,18C 38.6829,20.3504 41.0163,22.517 43.5,24.5C 46.9846,21.516 50.318,18.3493 53.5,15C 59.9321,14.1005 61.7655,16.6005 59,22.5C 55.9838,25.3489 53.1504,28.3489 50.5,31.5C 58.117,38.541 56.7837,42.3744 46.5,43C 42.1342,47.7007 37.4675,52.034 32.5,56C 29.1368,56.9274 26.1368,56.4274 23.5,54.5 Z M 41.5,4.5 C 43.0281,4.51731 43.5281,5.18398 43,6.5C 40,9.5 37,12.5 34,15.5C 33.5,15 33,14.5 32.5,14C 35.7044,10.9641 38.7044,7.79739 41.5,4.5 Z M 54.5,17.5 C 55.7562,17.4614 56.7562,17.9614 57.5,19C 54.5,22 51.5,25 48.5,28C 47.2752,28.5628 46.2752,28.2295 45.5,27C 48.7044,23.9641 51.7044,20.7974 54.5,17.5 Z"/></g>
<g><path style="opacity:0.83" fill="#125d66" d="M 23.5,6.5 C 23.5,7.5 23.5,8.5 23.5,9.5C 22.0937,9.97306 21.427,10.9731 21.5,12.5C 22.3543,14.035 22.3543,15.3684 21.5,16.5C 18.8136,17.9881 19.1469,18.6547 22.5,18.5C 21.5993,22.5221 19.766,23.1888 17,20.5C 13.0646,23.7622 9.89798,27.5955 7.5,32C 12.2349,39.9043 18.2349,46.7376 25.5,52.5C 25.631,53.2389 25.4643,53.9056 25,54.5C 24.31,53.2617 23.81,53.2617 23.5,54.5C 22.5416,54.0472 21.7083,53.3805 21,52.5C 19,53.8333 17,53.8333 15,52.5C 11.9533,55.8832 8.61999,58.8832 5,61.5C 3.74254,61.1501 3.40921,60.4835 4,59.5C 7.58556,56.6159 10.2522,53.2826 12,49.5C 11.6667,49.1667 11.3333,48.8333 11,48.5C 8.3176,51.3497 5.48426,54.0164 2.5,56.5C 2.16667,55.8333 1.83333,55.1667 1.5,54.5C 3.23473,51.2566 5.56806,48.4233 8.5,46C 7.23302,44.2041 7.23302,42.3707 8.5,40.5C 3.49339,35.3069 3.32673,29.9736 8,24.5C 11.3333,21.1667 14.6667,17.8333 18,14.5C 17.6495,10.4938 19.1495,7.49383 22.5,5.5C 23.1067,5.62358 23.44,5.95691 23.5,6.5 Z"/></g>
<g><path style="opacity:0.545" fill="#125c65" d="M 25.5,21.5 C 25.8333,24.5 24.5,25.8333 21.5,25.5C 21.1667,22.5 22.5,21.1667 25.5,21.5 Z"/></g>
<g><path style="opacity:0.971" fill="#135b67" d="M 29.5,25.5 C 29.0334,28.2974 27.3667,29.6308 24.5,29.5C 24.3838,26.0897 26.0504,24.7564 29.5,25.5 Z"/></g>
<g><path style="opacity:0.808" fill="#125d65" d="M 16.5,29.5 C 18.5,29.5 20.5,29.5 22.5,29.5C 22.5,31.5 22.5,33.5 22.5,35.5C 20.5,35.5 18.5,35.5 16.5,35.5C 16.5,33.5 16.5,31.5 16.5,29.5 Z"/></g>
<g><path style="opacity:0.62" fill="#125960" d="M 32.5,28.5 C 32.7163,30.6807 31.883,32.3474 30,33.5C 27.6757,30.3145 28.5091,28.6478 32.5,28.5 Z"/></g>
<g><path style="opacity:0.727" fill="#125d67" d="M 36.5,32.5 C 35.9789,35.7195 34.3122,36.7195 31.5,35.5C 32.4209,33.244 34.0876,32.244 36.5,32.5 Z"/></g>
<g><path style="opacity:0.713" fill="#13565e" d="M 39.5,35.5 C 39.756,37.9124 38.756,39.5791 36.5,40.5C 35.2805,37.6878 36.2805,36.0211 39.5,35.5 Z"/></g>
<g><path style="opacity:0.778" fill="#135761" d="M 43.5,39.5 C 43.5,40.1667 43.5,40.8333 43.5,41.5C 42.8333,41.5 42.5,41.8333 42.5,42.5C 41.8333,42.5 41.5,42.8333 41.5,43.5C 37.8649,43.3444 37.5315,42.1777 40.5,40C 41.448,39.5172 42.448,39.3505 43.5,39.5 Z"/></g>
<g><path style="opacity:0.716" fill="#105b64" d="M 26.5,39.5 C 28.5,39.5 30.5,39.5 32.5,39.5C 32.5,41.5 32.5,43.5 32.5,45.5C 30.5,45.5 28.5,45.5 26.5,45.5C 26.5,43.5 26.5,41.5 26.5,39.5 Z"/></g>
</svg>
