<?xml version="1.0" encoding="UTF-8"?>
<!DOCTYPE svg PUBLIC "-//W3C//DTD SVG 1.1//EN" "http://www.w3.org/Graphics/SVG/1.1/DTD/svg11.dtd">
<svg xmlns="http://www.w3.org/2000/svg" version="1.1" width="1160px" height="772px" style="shape-rendering:geometricPrecision; text-rendering:geometricPrecision; image-rendering:optimizeQuality; fill-rule:evenodd; clip-rule:evenodd" xmlns:xlink="http://www.w3.org/1999/xlink">
<g><path style="opacity:1" fill="#fefefe" d="M -0.5,-0.5 C 386.167,-0.5 772.833,-0.5 1159.5,-0.5C 1159.5,256.833 1159.5,514.167 1159.5,771.5C 772.833,771.5 386.167,771.5 -0.5,771.5C -0.5,514.167 -0.5,256.833 -0.5,-0.5 Z"/></g>
<g><path style="opacity:1" fill="#030303" d="M 534.5,146.5 C 539.511,146.334 544.511,146.501 549.5,147C 550.576,148.726 550.743,150.559 550,152.5C 543.333,159.167 536.667,165.833 530,172.5C 529.333,173.833 529.333,175.167 530,176.5C 539.345,187.011 549.178,197.011 559.5,206.5C 561.074,207.631 562.741,207.798 564.5,207C 571.5,200 578.5,193 585.5,186C 587.367,185.289 588.867,185.789 590,187.5C 590.527,219.807 574.694,237.474 542.5,240.5C 536.144,239.54 529.811,238.707 523.5,238C 495.027,266.473 466.527,294.973 438,323.5C 437.362,324.609 436.862,325.775 436.5,327C 444.147,353.412 436.147,373.412 412.5,387C 404.138,390.385 395.472,391.718 386.5,391C 384.789,389.867 384.289,388.367 385,386.5C 392,379.5 399,372.5 406,365.5C 406.667,363.833 406.667,362.167 406,360.5C 396.167,350.667 386.333,340.833 376.5,331C 374.833,330.333 373.167,330.333 371.5,331C 364.833,337.667 358.167,344.333 351.5,351C 349.833,351.667 348.167,351.667 346.5,351C 344.121,325.776 354.787,308.443 378.5,299C 383.111,298.021 387.777,297.521 392.5,297.5C 399.016,297.555 405.349,298.388 411.5,300C 440.667,270.833 469.833,241.667 499,212.5C 490.707,179.408 502.54,157.408 534.5,146.5 Z"/></g>
<g><path style="opacity:1" fill="#040404" d="M 669.5,248.5 C 657.666,248.403 646,248.403 634.5,248.5C 633.504,248.586 632.671,248.252 632,247.5C 631.333,243.167 631.333,238.833 632,234.5C 638.54,231.094 645.373,228.261 652.5,226C 654.801,220.102 657.301,214.268 660,208.5C 660.667,207.167 660.667,205.833 660,204.5C 657.393,199.62 655.06,194.62 653,189.5C 652.333,187.5 652.333,185.5 653,183.5C 656.167,180.333 659.333,177.167 662.5,174C 664.5,173.333 666.5,173.333 668.5,174C 674.059,176.363 679.559,178.863 685,181.5C 690.893,178.303 697.06,175.803 703.5,174C 705.041,172.421 706.208,170.587 707,168.5C 708.399,162.957 710.566,157.79 713.5,153C 719.5,152.333 725.5,152.333 731.5,153C 734.67,158.848 737.17,165.015 739,171.5C 745.68,175.339 752.68,178.672 760,181.5C 765.228,179.136 770.394,176.636 775.5,174C 777.833,173.333 780.167,173.333 782.5,174C 786.036,177.201 789.203,180.701 792,184.5C 791.095,191.544 788.761,198.211 785,204.5C 786.499,211.663 788.832,218.663 792,225.5C 799.045,228.511 806.045,231.511 813,234.5C 813.667,240.5 813.667,246.5 813,252.5C 806.431,255.857 799.598,258.691 792.5,261C 789.479,266.394 786.645,271.894 784,277.5C 786.046,284.281 788.713,290.948 792,297.5C 792.706,299.971 792.373,302.305 791,304.5C 787.771,308.755 783.771,311.755 779,313.5C 771.686,310.928 764.519,307.928 757.5,304.5C 751.914,307.029 746.247,309.362 740.5,311.5C 738.893,311.363 737.559,310.696 736.5,309.5C 733.7,304.204 730.7,299.037 727.5,294C 759.763,286.626 774.929,266.46 773,233.5C 767.059,213.894 754.559,200.394 735.5,193C 703.047,188.816 682.213,202.316 673,233.5C 672.667,237.833 672.333,242.167 672,246.5C 671.583,247.756 670.75,248.423 669.5,248.5 Z"/></g>
<g><path style="opacity:1" fill="#353535" d="M 669.5,248.5 C 657.833,249.833 646.167,249.833 634.5,248.5C 646,248.403 657.666,248.403 669.5,248.5 Z"/></g>
<g><path style="opacity:1" fill="#070707" d="M 629.5,257.5 C 631.792,257.244 633.959,257.577 636,258.5C 636.333,268.833 636.667,279.167 637,289.5C 639.333,292.167 641.667,292.167 644,289.5C 644.333,279.5 644.667,269.5 645,259.5C 647.667,256.833 650.333,256.833 653,259.5C 653.333,269.5 653.667,279.5 654,289.5C 656.333,292.167 658.667,292.167 661,289.5C 661.333,279.5 661.667,269.5 662,259.5C 664.179,257.363 666.679,257.029 669.5,258.5C 670.823,281.798 670.823,305.131 669.5,328.5C 655.883,329.482 642.216,329.815 628.5,329.5C 628.177,305.425 628.51,281.425 629.5,257.5 Z"/></g>
<g><path style="opacity:1" fill="#020202" d="M 615.5,269.5 C 616.583,269.539 617.583,269.873 618.5,270.5C 619.666,289.825 619.833,309.158 619,328.5C 601.24,329.658 583.407,329.825 565.5,329C 564.903,327.938 564.57,326.772 564.5,325.5C 572.476,298.527 589.476,279.861 615.5,269.5 Z"/></g>
<g><path style="opacity:1" fill="#040404" d="M 679.5,270.5 C 686.216,271.852 692.549,274.352 698.5,278C 715.875,289.727 727.542,305.727 733.5,326C 733.241,327.261 732.574,328.261 731.5,329C 714.5,329.667 697.5,329.667 680.5,329C 680,328.5 679.5,328 679,327.5C 678.18,308.427 678.347,289.427 679.5,270.5 Z"/></g>
<g><path style="opacity:1" fill="#626262" d="M 554.5,338.5 C 616.998,337.501 679.664,337.168 742.5,337.5C 742.821,343.026 742.488,348.36 741.5,353.5C 741.5,348.5 741.5,343.5 741.5,338.5C 679.167,338.5 616.833,338.5 554.5,338.5 Z"/></g>
<g><path style="opacity:1" fill="#000000" d="M 554.5,338.5 C 616.833,338.5 679.167,338.5 741.5,338.5C 741.5,343.5 741.5,348.5 741.5,353.5C 679.001,354.665 616.335,354.832 553.5,354C 552.859,351.422 552.525,348.755 552.5,346C 552.525,343.071 553.191,340.571 554.5,338.5 Z"/></g>
<g><path style="opacity:1" fill="#0c0c0c" d="M 561.5,363.5 C 566.5,363.5 571.5,363.5 576.5,363.5C 575.038,367.817 572.872,371.817 570,375.5C 568.864,378.096 568.031,380.763 567.5,383.5C 564.95,383.439 563.45,382.106 563,379.5C 562.17,374.192 561.67,368.859 561.5,363.5 Z"/></g>
<g><path style="opacity:1" fill="#010101" d="M 594.5,363.5 C 629.168,363.333 663.835,363.5 698.5,364C 708.709,367.214 715.209,374.048 718,384.5C 720.264,390.662 720.93,396.996 720,403.5C 715.635,427.083 704.468,446.583 686.5,462C 662.658,477.092 637.991,478.426 612.5,466C 594.721,455.545 582.887,440.378 577,420.5C 568.7,400.223 572.2,382.39 587.5,367C 589.925,365.787 592.259,364.621 594.5,363.5 Z"/></g>
<g><path style="opacity:1" fill="#0a0a0a" d="M 716.5,363.5 C 721.5,363.5 726.5,363.5 731.5,363.5C 731.489,370.242 730.822,376.908 729.5,383.5C 728.178,383.67 727.011,383.337 726,382.5C 723.35,375.866 720.183,369.532 716.5,363.5 Z"/></g>
<g><path style="opacity:1" fill="#050505" d="M 442.5,406.5 C 446.571,406.234 450.571,406.567 454.5,407.5C 457.145,412.26 459.312,417.26 461,422.5C 465.9,424.469 470.733,426.635 475.5,429C 476.5,429.667 477.5,429.667 478.5,429C 483.358,425.558 488.691,423.892 494.5,424C 497.432,426.423 499.765,429.257 501.5,432.5C 499.634,437.729 497.634,442.896 495.5,448C 497.259,453.619 499.592,458.953 502.5,464C 507.636,465.596 512.469,467.763 517,470.5C 517.828,474.871 517.661,479.205 516.5,483.5C 510.86,485.545 505.36,487.879 500,490.5C 498.885,494.729 497.219,498.729 495,502.5C 496.102,507.727 498.102,512.727 501,517.5C 501.667,519.167 501.667,520.833 501,522.5C 498.529,525.652 495.529,527.985 492,529.5C 486.316,527.489 480.65,525.489 475,523.5C 471.135,524.513 467.302,525.68 463.5,527C 459.857,531.908 457.357,537.408 456,543.5C 453.959,545.974 451.292,546.974 448,546.5C 445.329,546.726 442.996,546.059 441,544.5C 439.133,539.898 437.466,535.232 436,530.5C 434.833,529.333 433.667,528.167 432.5,527C 428.509,525.922 424.676,524.422 421,522.5C 415.771,525.115 410.438,527.449 405,529.5C 401.133,527.647 397.799,524.98 395,521.5C 396.102,516.273 398.102,511.273 401,506.5C 401.667,504.833 401.667,503.167 401,501.5C 399.059,497.952 397.393,494.286 396,490.5C 391.212,487.664 386.046,485.497 380.5,484C 380,483.5 379.5,483 379,482.5C 378.333,478.5 378.333,474.5 379,470.5C 379.5,470 380,469.5 380.5,469C 385.74,467.312 390.74,465.145 395.5,462.5C 396.846,457.963 398.679,453.629 401,449.5C 399,443.5 397,437.5 395,431.5C 397.5,429 400,426.5 402.5,424C 404.167,423.333 405.833,423.333 407.5,424C 411.386,426.11 415.386,427.943 419.5,429.5C 424.231,426.803 429.231,424.637 434.5,423C 437.093,417.452 439.76,411.952 442.5,406.5 Z"/></g>
<g><path style="opacity:1" fill="#fcfcfc" d="M 441.5,435.5 C 466.29,433.812 482.124,444.812 489,468.5C 490.726,485.673 484.559,499.173 470.5,509C 445.926,520.696 426.76,514.863 413,491.5C 405.281,463.936 414.781,445.27 441.5,435.5 Z"/></g>
<g><path style="opacity:1" fill="#020202" d="M 608.5,473.5 C 631.078,485.433 654.078,486.433 677.5,476.5C 678.495,487.654 678.828,498.988 678.5,510.5C 673.834,533.988 659.501,544.821 635.5,543C 619.237,538.575 609.904,528.075 607.5,511.5C 607.171,498.656 607.505,485.989 608.5,473.5 Z"/></g>
<g><path style="opacity:1" fill="#afafaf" d="M 677.5,476.5 C 677.56,475.957 677.893,475.624 678.5,475.5C 679.824,487.327 679.824,498.993 678.5,510.5C 678.828,498.988 678.495,487.654 677.5,476.5 Z"/></g>
<g><path style="opacity:1" fill="#636363" d="M 608.5,473.5 C 607.505,485.989 607.171,498.656 607.5,511.5C 606.175,498.661 606.175,485.661 607.5,472.5C 608.107,472.624 608.44,472.957 608.5,473.5 Z"/></g>
<g><path style="opacity:1" fill="#030303" d="M 612.5,613.5 C 600.852,604.19 589.186,594.857 577.5,585.5C 583.808,576.692 590.308,568.025 597,559.5C 597.667,558.167 597.667,556.833 597,555.5C 586.05,543.761 575.217,531.928 564.5,520C 560.819,518.686 558.486,519.853 557.5,523.5C 559.103,526.28 560.937,528.946 563,531.5C 571.398,539.976 579.565,548.642 587.5,557.5C 580.859,566.642 574.025,575.642 567,584.5C 566.333,585.833 566.333,587.167 567,588.5C 581.71,600.049 596.543,611.382 611.5,622.5C 611.918,623.222 612.584,623.722 613.5,624C 574.167,624.667 534.833,624.667 495.5,624C 491.835,622.332 489.668,619.499 489,615.5C 486.718,575.229 502.551,544.395 536.5,523C 554.317,513.503 573.317,509.503 593.5,511C 595.081,511.707 596.581,512.54 598,513.5C 599.968,517.96 601.302,522.627 602,527.5C 607.276,557.2 612.276,586.867 617,616.5C 615.729,615.117 614.229,614.117 612.5,613.5 Z"/></g>
<g><path style="opacity:1" fill="#030303" d="M 791.5,624.5 C 752.996,624.832 714.663,624.499 676.5,623.5C 691.791,612.049 706.957,600.382 722,588.5C 722.667,587.167 722.667,585.833 722,584.5C 714.975,575.642 708.141,566.642 701.5,557.5C 711.149,546.683 720.983,536.017 731,525.5C 731.622,520.292 729.455,518.626 724.5,520.5C 713.85,532.317 703.017,543.984 692,555.5C 691.333,556.833 691.333,558.167 692,559.5C 697.953,567.788 704.286,575.788 711,583.5C 711.667,584.5 711.667,585.5 711,586.5C 698,596.5 685,606.5 672,616.5C 671.517,615.552 671.351,614.552 671.5,613.5C 676.15,581.151 680.984,548.818 686,516.5C 687.167,514 689,512.167 691.5,511C 741.617,507.618 776.45,528.785 796,574.5C 800.901,588.107 802.568,602.107 801,616.5C 799.505,621.162 796.339,623.828 791.5,624.5 Z"/></g>
<g><path style="opacity:1" fill="#020202" d="M 661.5,623.5 C 650.581,624.477 639.581,624.81 628.5,624.5C 623.031,597.694 618.198,570.694 614,543.5C 614.414,543.043 614.914,542.709 615.5,542.5C 628.333,551.766 642.333,553.933 657.5,549C 662.563,546.798 667.563,544.631 672.5,542.5C 668.739,569.497 665.072,596.497 661.5,623.5 Z"/></g>
<g><path style="opacity:1" fill="#f4f4f4" d="M 676.5,623.5 C 675.662,623.842 675.328,624.508 675.5,625.5C 674.59,623.981 673.757,622.315 673,620.5C 672.333,621.833 671.667,621.833 671,620.5C 670.204,617.961 670.371,615.628 671.5,613.5C 671.351,614.552 671.517,615.552 672,616.5C 685,606.5 698,596.5 711,586.5C 711.667,585.5 711.667,584.5 711,583.5C 704.286,575.788 697.953,567.788 692,559.5C 691.333,558.167 691.333,556.833 692,555.5C 703.017,543.984 713.85,532.317 724.5,520.5C 729.455,518.626 731.622,520.292 731,525.5C 720.983,536.017 711.149,546.683 701.5,557.5C 708.141,566.642 714.975,575.642 722,584.5C 722.667,585.833 722.667,587.167 722,588.5C 706.957,600.382 691.791,612.049 676.5,623.5 Z"/></g>
<g><path style="opacity:1" fill="#f4f4f4" d="M 612.5,613.5 C 612.297,615.638 611.297,617.305 609.5,618.5C 610.853,619.524 611.52,620.857 611.5,622.5C 596.543,611.382 581.71,600.049 567,588.5C 566.333,587.167 566.333,585.833 567,584.5C 574.025,575.642 580.859,566.642 587.5,557.5C 579.565,548.642 571.398,539.976 563,531.5C 560.937,528.946 559.103,526.28 557.5,523.5C 558.486,519.853 560.819,518.686 564.5,520C 575.217,531.928 586.05,543.761 597,555.5C 597.667,556.833 597.667,558.167 597,559.5C 590.308,568.025 583.808,576.692 577.5,585.5C 589.186,594.857 600.852,604.19 612.5,613.5 Z"/></g>
<g><path style="opacity:1" fill="#a2a2a2" d="M 661.5,623.5 C 656.376,624.829 650.876,625.495 645,625.5C 639.323,625.499 633.823,625.166 628.5,624.5C 639.581,624.81 650.581,624.477 661.5,623.5 Z"/></g>
<g><path style="opacity:1" fill="#a0a0a0" d="M 676.5,623.5 C 714.663,624.499 752.996,624.832 791.5,624.5C 753.004,625.499 714.337,625.832 675.5,625.5C 675.328,624.508 675.662,623.842 676.5,623.5 Z"/></g>
</svg>
