<?xml version="1.0" encoding="UTF-8"?>
<!DOCTYPE svg PUBLIC "-//W3C//DTD SVG 1.1//EN" "http://www.w3.org/Graphics/SVG/1.1/DTD/svg11.dtd">
<svg xmlns="http://www.w3.org/2000/svg" version="1.1" width="50px" height="50px" style="shape-rendering:geometricPrecision; text-rendering:geometricPrecision; image-rendering:optimizeQuality; fill-rule:evenodd; clip-rule:evenodd" xmlns:xlink="http://www.w3.org/1999/xlink">
<g><path style="opacity:0.65" fill="#000000" d="M 28.5,1.5 C 31.2776,1.02166 33.2776,2.02166 34.5,4.5C 36.649,0.856225 39.3156,0.522892 42.5,3.5C 41.7542,4.73619 41.4208,6.06953 41.5,7.5C 43.1439,7.71351 44.6439,7.38017 46,6.5C 48.425,9.88213 47.925,12.7155 44.5,15C 47.5511,16.3605 48.2177,18.5272 46.5,21.5C 44.9974,22.0522 43.3307,22.0522 41.5,21.5C 41.2865,23.1439 41.6198,24.6439 42.5,26C 40.6494,26.8372 38.8161,27.6705 37,28.5C 35.7463,24.7265 34.2463,24.2265 32.5,27C 30.765,27.6514 29.0983,27.4847 27.5,26.5C 24.7923,29.165 25.4589,30.4983 29.5,30.5C 29.5,32.5 29.5,34.5 29.5,36.5C 27.6536,36.2222 26.3202,36.8888 25.5,38.5C 28.1706,41.5447 27.504,43.8781 23.5,45.5C 20.2991,42.3698 18.6324,43.0365 18.5,47.5C 16.5,47.5 14.5,47.5 12.5,47.5C 12.6882,45.8967 12.1882,44.5634 11,43.5C 7.73578,46.3036 5.23578,45.6369 3.5,41.5C 6.63017,38.2991 5.9635,36.6324 1.5,36.5C 1.5,34.5 1.5,32.5 1.5,30.5C 3.10326,30.6882 4.43659,30.1882 5.5,29C 2.69644,25.7358 3.3631,23.2358 7.5,21.5C 10.7009,24.6302 12.3676,23.9635 12.5,19.5C 14.5,19.5 16.5,19.5 18.5,19.5C 18.5017,23.5411 19.835,24.2077 22.5,21.5C 20.8953,18.4197 21.562,15.9197 24.5,14C 20.8919,12.0431 20.5586,9.5431 23.5,6.5C 24.7362,7.24585 26.0695,7.57918 27.5,7.5C 27.5792,6.06953 27.2458,4.73619 26.5,3.5C 27.2427,2.81815 27.9094,2.15149 28.5,1.5 Z M 30.5,5.5 C 33.0103,8.06126 35.5103,8.06126 38,5.5C 37.8333,9.33333 39.6667,11.1667 43.5,11C 40.9456,13.3975 40.9456,15.7309 43.5,18C 39.6667,17.8333 37.8333,19.6667 38,23.5C 35.6025,20.9456 33.2691,20.9456 31,23.5C 30.5,20.3333 28.6667,18.5 25.5,18C 28.1667,15.6667 28.1667,13.3333 25.5,11C 29.0945,10.8775 30.7612,9.0442 30.5,5.5 Z M 32.5,12.5 C 33.8333,12.5 35.1667,12.5 36.5,12.5C 36.5,13.8333 36.5,15.1667 36.5,16.5C 35.1667,16.5 33.8333,16.5 32.5,16.5C 32.5,15.1667 32.5,13.8333 32.5,12.5 Z M 24.5,22.5 C 25.3864,21.2241 26.3864,21.2241 27.5,22.5C 26.5754,23.5624 25.5754,23.5624 24.5,22.5 Z M 22.5,26.5 C 21.4901,29.5007 22.4901,31.8341 25.5,33.5C 22.4901,35.1659 21.4901,37.4993 22.5,40.5C 19.0225,39.4912 16.5225,40.8246 15,44.5C 14.1401,40.6637 11.9734,39.3303 8.5,40.5C 9.50993,37.4993 8.50993,35.1659 5.5,33.5C 8.52714,31.8043 9.52714,29.471 8.5,26.5C 11.471,27.5271 13.8043,26.5271 15.5,23.5C 17.1957,26.5271 19.529,27.5271 22.5,26.5 Z M 13.5,31.5 C 14.8333,31.5 16.1667,31.5 17.5,31.5C 17.5,32.8333 17.5,34.1667 17.5,35.5C 16.1667,35.5 14.8333,35.5 13.5,35.5C 13.5,34.1667 13.5,32.8333 13.5,31.5 Z"/></g>
<g><path style="opacity:0.699" fill="#000000" d="M 31.5,9.5 C 39.4863,8.99804 41.4863,12.1647 37.5,19C 29.424,19.8047 27.424,16.638 31.5,9.5 Z M 32.5,12.5 C 32.5,13.8333 32.5,15.1667 32.5,16.5C 33.8333,16.5 35.1667,16.5 36.5,16.5C 36.5,15.1667 36.5,13.8333 36.5,12.5C 35.1667,12.5 33.8333,12.5 32.5,12.5 Z"/></g>
<g><path style="opacity:0.699" fill="#000000" d="M 12.5,28.5 C 20.4863,27.998 22.4863,31.1647 18.5,38C 10.424,38.8047 8.42402,35.638 12.5,28.5 Z M 13.5,31.5 C 13.5,32.8333 13.5,34.1667 13.5,35.5C 14.8333,35.5 16.1667,35.5 17.5,35.5C 17.5,34.1667 17.5,32.8333 17.5,31.5C 16.1667,31.5 14.8333,31.5 13.5,31.5 Z"/></g>
</svg>
