<?xml version="1.0" encoding="UTF-8"?>
<!DOCTYPE svg PUBLIC "-//W3C//DTD SVG 1.1//EN" "http://www.w3.org/Graphics/SVG/1.1/DTD/svg11.dtd">
<svg xmlns="http://www.w3.org/2000/svg" version="1.1" width="67px" height="67px" style="shape-rendering:geometricPrecision; text-rendering:geometricPrecision; image-rendering:optimizeQuality; fill-rule:evenodd; clip-rule:evenodd" xmlns:xlink="http://www.w3.org/1999/xlink">
<g><path style="opacity:0.769" fill="#125c65" d="M 42.5,36.5 C 42.6716,37.4916 42.3382,38.1583 41.5,38.5C 35.8333,38.5 30.1667,38.5 24.5,38.5C 25.0906,37.8485 25.7573,37.1818 26.5,36.5C 26.3764,35.8933 26.0431,35.56 25.5,35.5C 24.6676,34.6715 25.001,33.8382 26.5,33C 24.8659,32.5065 23.1992,32.3398 21.5,32.5C 21.5,30.5 21.5,28.5 21.5,26.5C 17.6057,25.6982 13.939,24.1982 10.5,22C 9.57692,19.9592 9.24358,17.7925 9.5,15.5C 11.6719,14.1989 14.0052,13.1989 16.5,12.5C 16.2865,10.8561 16.6198,9.35613 17.5,8C 23.5897,7.6671 29.423,6.50044 35,4.5C 36.8937,4.57981 38.7271,4.91315 40.5,5.5C 40.7731,10.2008 42.9398,11.8675 47,10.5C 49.7217,12.5725 52.8883,13.5725 56.5,13.5C 56.5,16.8333 56.5,20.1667 56.5,23.5C 52.359,24.2402 48.359,25.2402 44.5,26.5C 44.5,28.5 44.5,30.5 44.5,32.5C 42.8008,32.3398 41.1341,32.5065 39.5,33C 41.1247,33.8525 41.4581,34.8525 40.5,36C 41.0944,36.4643 41.7611,36.631 42.5,36.5 Z M 31.5,7.5 C 33.8333,7.5 36.1667,7.5 38.5,7.5C 38.5,8.5 38.5,9.5 38.5,10.5C 36.1667,10.5 33.8333,10.5 31.5,10.5C 31.5,9.5 31.5,8.5 31.5,7.5 Z M 43.5,12.5 C 44.7079,13.2341 46.0413,13.5674 47.5,13.5C 47.5,16.8333 47.5,20.1667 47.5,23.5C 37.8333,23.5 28.1667,23.5 18.5,23.5C 18.5,20.1667 18.5,16.8333 18.5,13.5C 27.0168,13.8261 35.3501,13.4927 43.5,12.5 Z M 50.5,15.5 C 51.8333,15.5 53.1667,15.5 54.5,15.5C 54.5,17.5 54.5,19.5 54.5,21.5C 53.1667,21.5 51.8333,21.5 50.5,21.5C 50.5,19.5 50.5,17.5 50.5,15.5 Z M 22.5,17.5 C 25.2469,17.1866 27.9135,17.52 30.5,18.5C 29.1667,18.8333 27.8333,19.1667 26.5,19.5C 24.6672,19.4146 23.3339,18.7479 22.5,17.5 Z M 24.5,26.5 C 30.1667,26.5 35.8333,26.5 41.5,26.5C 41.5,27.8333 41.5,29.1667 41.5,30.5C 40.1667,30.5 38.8333,30.5 37.5,30.5C 36.8333,26.5 36.1667,26.5 35.5,30.5C 31.8333,30.5 28.1667,30.5 24.5,30.5C 24.5,29.1667 24.5,27.8333 24.5,26.5 Z M 29.5,33.5 C 31.6282,32.3709 33.9615,32.2042 36.5,33C 35.6634,34.0113 35.33,35.1779 35.5,36.5C 33.8333,36.5 32.1667,36.5 30.5,36.5C 30.7373,35.209 30.404,34.209 29.5,33.5 Z"/></g>
<g><path style="opacity:0.916" fill="#125b64" d="M 35.5,15.5 C 40.1225,14.4082 41.9558,16.0748 41,20.5C 38.1306,23.0087 35.964,22.342 34.5,18.5C 35.1272,17.5832 35.4606,16.5832 35.5,15.5 Z"/></g>
<g><path style="opacity:0.852" fill="#135965" d="M 20.5,15.5 C 24.5138,15.3345 28.5138,15.5012 32.5,16C 33.8333,18 33.8333,20 32.5,22C 28.5138,22.4988 24.5138,22.6655 20.5,22.5C 20.5,20.1667 20.5,17.8333 20.5,15.5 Z M 22.5,17.5 C 23.3339,18.7479 24.6672,19.4146 26.5,19.5C 27.8333,19.1667 29.1667,18.8333 30.5,18.5C 27.9135,17.52 25.2469,17.1866 22.5,17.5 Z"/></g>
<g><path style="opacity:0.766" fill="#135b64" d="M 25.5,35.5 C 26.0431,35.56 26.3764,35.8933 26.5,36.5C 25.7573,37.1818 25.0906,37.8485 24.5,38.5C 26.9151,39.8142 29.7485,40.4809 33,40.5C 36.2515,40.4809 39.0849,39.8142 41.5,38.5C 42.3382,38.1583 42.6716,37.4916 42.5,36.5C 45.0935,43.9374 47.7602,51.604 50.5,59.5C 49.0336,61.6568 47.2003,61.9901 45,60.5C 42.7709,54.3767 40.2709,48.3767 37.5,42.5C 35.9338,48.3937 35.2671,54.3937 35.5,60.5C 33.8333,60.5 32.1667,60.5 30.5,60.5C 30.7329,54.3937 30.0662,48.3937 28.5,42.5C 25.7291,48.3767 23.2291,54.3767 21,60.5C 18.7997,61.9901 16.9664,61.6568 15.5,59.5C 18.735,52.1328 20.735,44.4662 21.5,36.5C 23.099,36.7678 24.4324,36.4345 25.5,35.5 Z M 24.5,38.5 C 30.1667,38.5 35.8333,38.5 41.5,38.5C 39.0849,39.8142 36.2515,40.4809 33,40.5C 29.7485,40.4809 26.9151,39.8142 24.5,38.5 Z"/></g>
</svg>
