<?xml version="1.0" encoding="UTF-8"?>
<!DOCTYPE svg PUBLIC "-//W3C//DTD SVG 1.1//EN" "http://www.w3.org/Graphics/SVG/1.1/DTD/svg11.dtd">
<svg xmlns="http://www.w3.org/2000/svg" version="1.1" width="50px" height="50px" style="shape-rendering:geometricPrecision; text-rendering:geometricPrecision; image-rendering:optimizeQuality; fill-rule:evenodd; clip-rule:evenodd" xmlns:xlink="http://www.w3.org/1999/xlink">
<g><path style="opacity:0.7" fill="#125c65" d="M 8.5,1.5 C 16.4863,0.998044 18.4863,4.16471 14.5,11C 6.42402,11.8047 4.42402,8.63805 8.5,1.5 Z M 9.5,4.5 C 10.8333,4.5 12.1667,4.5 13.5,4.5C 13.5,5.83333 13.5,7.16667 13.5,8.5C 12.1667,8.5 10.8333,8.5 9.5,8.5C 9.5,7.16667 9.5,5.83333 9.5,4.5 Z"/></g>
<g><path style="opacity:0.999" fill="#125c65" d="M 28.5,1.5 C 34.6196,3.31693 40.9529,3.9836 47.5,3.5C 47.5,13.5 47.5,23.5 47.5,33.5C 42.1563,33.334 36.8229,33.5006 31.5,34C 33.2941,37.0877 34.9608,40.2544 36.5,43.5C 36,43.8333 35.5,44.1667 35,44.5C 32.93,42.0372 31.0967,39.3705 29.5,36.5C 27.9138,38.6705 26.5804,41.0038 25.5,43.5C 24.5,44.8333 23.5,44.8333 22.5,43.5C 24.0392,40.2544 25.7059,37.0877 27.5,34C 24.7737,33.8184 22.1071,33.3184 19.5,32.5C 28.1411,31.502 36.8078,31.1686 45.5,31.5C 45.5,22.8333 45.5,14.1667 45.5,5.5C 36.4754,5.83151 27.4754,5.49818 18.5,4.5C 22.2634,4.10383 25.5968,3.10383 28.5,1.5 Z"/></g>
<g><path style="opacity:0.974" fill="#135c66" d="M 3.5,12.5 C 6.46578,12.1103 9.13245,12.777 11.5,14.5C 17.9505,12.5933 24.6172,11.9267 31.5,12.5C 31.5,14.5 31.5,16.5 31.5,18.5C 26.8333,18.5 22.1667,18.5 17.5,18.5C 17.6665,27.8393 17.4998,37.1726 17,46.5C 13.3333,47.8333 9.66667,47.8333 6,46.5C 5.50098,42.1794 5.33432,37.8461 5.5,33.5C 4.16667,33.5 2.83333,33.5 1.5,33.5C 1.33379,27.1579 1.50046,20.8246 2,14.5C 2.71719,13.9558 3.21719,13.2891 3.5,12.5 Z M 15.5,16.5 C 17.223,15.1999 19.3897,14.5332 22,14.5C 24.1667,14.8333 26.3333,15.1667 28.5,15.5C 24.2172,16.4922 19.8839,16.8256 15.5,16.5 Z M 15.5,16.5 C 15.6664,25.5062 15.4998,34.5062 15,43.5C 14.3333,44.8333 13.6667,44.8333 13,43.5C 12.8253,39.789 12.3253,36.1224 11.5,32.5C 10.9362,36.6437 10.1029,40.6437 9,44.5C 7.86057,36.3098 7.02723,27.9765 6.5,19.5C 5.83333,23.1667 5.16667,26.8333 4.5,30.5C 3.33382,25.497 3.33382,20.497 4.5,15.5C 5.55198,15.3505 6.55198,15.5172 7.5,16C 9.98935,21.7688 12.656,21.9355 15.5,16.5 Z"/></g>
</svg>
