<?xml version="1.0" encoding="UTF-8"?>
<!DOCTYPE svg PUBLIC "-//W3C//DTD SVG 1.1//EN" "http://www.w3.org/Graphics/SVG/1.1/DTD/svg11.dtd">
<svg xmlns="http://www.w3.org/2000/svg" version="1.1" width="486px" height="440px" style="shape-rendering:geometricPrecision; text-rendering:geometricPrecision; image-rendering:optimizeQuality; fill-rule:evenodd; clip-rule:evenodd" xmlns:xlink="http://www.w3.org/1999/xlink">
<g><path style="opacity:1" fill="#fdfdfd" d="M -0.5,-0.5 C 161.5,-0.5 323.5,-0.5 485.5,-0.5C 485.5,146.167 485.5,292.833 485.5,439.5C 323.5,439.5 161.5,439.5 -0.5,439.5C -0.5,292.833 -0.5,146.167 -0.5,-0.5 Z"/></g>
<g><path style="opacity:1" fill="#232323" d="M 215.5,22.5 C 248.682,22.1871 268.016,38.3538 273.5,71C 286.104,66.7999 296.937,69.6332 306,79.5C 313.048,92.0816 311.548,103.582 301.5,114C 297.905,116.569 293.905,118.236 289.5,119C 245.167,119.667 200.833,119.667 156.5,119C 134.432,110.235 127.598,94.7346 136,72.5C 145.694,57.9278 159.194,52.7612 176.5,57C 183.782,38.8761 196.782,27.3761 215.5,22.5 Z"/></g>
<g><path style="opacity:1" fill="#262626" d="M 111.5,84.5 C 115,84.4954 116.5,86.1621 116,89.5C 112.885,91.6471 110.052,94.1471 107.5,97C 102.769,99.812 100.602,98.6453 101,93.5C 104.665,90.6005 108.165,87.6005 111.5,84.5 Z"/></g>
<g><path style="opacity:1" fill="#262626" d="M 323.5,76.5 C 329.33,78.6734 334.496,82.0067 339,86.5C 339.667,87.5 339.667,88.5 339,89.5C 337.274,90.5762 335.441,90.7429 333.5,90C 328.854,87.3469 324.854,84.0135 321.5,80C 321.978,78.6974 322.645,77.5307 323.5,76.5 Z"/></g>
<g><path style="opacity:1" fill="#686868" d="M 189.5,80.5 C 195.918,79.958 200.418,82.6247 203,88.5C 204.115,92.4845 203.115,95.8178 200,98.5C 203.001,87.3279 198.834,82.8279 187.5,85C 183.302,89.632 183.636,93.9654 188.5,98C 194.333,98.8333 196.833,96.3333 196,90.5C 190.697,87.1147 188.863,88.4481 190.5,94.5C 191.386,93.675 191.719,92.675 191.5,91.5C 192.5,91.5 193.5,91.5 194.5,91.5C 195.17,94.5904 194.003,96.257 191,96.5C 185.731,93.8073 185.231,90.3073 189.5,86C 194.745,85.3993 198.079,87.7326 199.5,93C 198.563,98.2327 195.396,101.066 190,101.5C 187.077,101.205 184.743,99.8715 183,97.5C 179.343,89.3876 181.509,83.7209 189.5,80.5 Z"/></g>
<g><path style="opacity:1" fill="#575757" d="M 268.5,98.5 C 270.606,98.679 272.272,99.679 273.5,101.5C 271.955,102.452 270.288,102.785 268.5,102.5C 268.5,101.167 268.5,99.8333 268.5,98.5 Z"/></g>
<g><path style="opacity:1" fill="#272727" d="M 346.5,94.5 C 347.873,94.3433 349.207,94.51 350.5,95C 354,98.5 357.5,102 361,105.5C 361.398,110.645 359.231,111.812 354.5,109C 351.667,106.167 348.833,103.333 346,100.5C 345.322,98.4024 345.489,96.4024 346.5,94.5 Z"/></g>
<g><path style="opacity:1" fill="#292929" d="M 90.5,103.5 C 94.0003,103.495 95.5003,105.162 95,108.5C 91.3833,112.239 87.8833,116.072 84.5,120C 80.3333,121.167 78.8333,119.667 80,115.5C 83.3651,111.307 86.8651,107.307 90.5,103.5 Z"/></g>
<g><path style="opacity:1" fill="#232323" d="M 366.5,116.5 C 369.325,116.081 371.491,117.081 373,119.5C 374.944,123.11 377.277,126.443 380,129.5C 380.684,130.784 380.517,131.951 379.5,133C 376.975,133.896 374.808,133.396 373,131.5C 371.056,127.89 368.723,124.557 366,121.5C 365.36,119.735 365.527,118.068 366.5,116.5 Z"/></g>
<g><path style="opacity:1" fill="#262626" d="M 70.5,126.5 C 74.509,126.014 76.3423,127.68 76,131.5C 73.3021,135.367 70.8021,139.367 68.5,143.5C 63.9811,145.588 62.1477,144.254 63,139.5C 66.0289,135.438 68.5289,131.105 70.5,126.5 Z"/></g>
<g><path style="opacity:1" fill="#292929" d="M 383.5,141.5 C 384.873,141.343 386.207,141.51 387.5,142C 390.517,146.513 392.851,151.346 394.5,156.5C 394.392,157.442 394.059,158.275 393.5,159C 391.741,159.798 390.074,159.631 388.5,158.5C 386.763,154.79 384.929,151.123 383,147.5C 382.322,145.402 382.489,143.402 383.5,141.5 Z"/></g>
<g><path style="opacity:1" fill="#242424" d="M 160.5,146.5 C 166.103,151.78 170.103,158.114 172.5,165.5C 169.771,176.366 163.438,179.366 153.5,174.5C 148.381,168.742 148.214,162.742 153,156.5C 155.717,153.29 158.217,149.956 160.5,146.5 Z"/></g>
<g><path style="opacity:1" fill="#232323" d="M 289.5,173.5 C 288.373,172.878 287.373,172.045 286.5,171C 283.443,170.744 280.443,170.244 277.5,169.5C 275.799,170.554 274.132,171.554 272.5,172.5C 270.81,169.36 270.31,166.026 271,162.5C 273.679,156.471 277.346,151.138 282,146.5C 288.399,152.631 292.066,159.964 293,168.5C 292.303,170.584 291.136,172.251 289.5,173.5 Z"/></g>
<g><path style="opacity:1" fill="#242424" d="M 220.5,146.5 C 226.753,151.325 230.753,157.658 232.5,165.5C 231.235,175.295 225.901,178.795 216.5,176C 212.198,174.065 210.198,170.732 210.5,166C 210.329,162.871 211.162,160.037 213,157.5C 215.51,153.805 218.01,150.138 220.5,146.5 Z"/></g>
<g><path style="opacity:1" fill="#232323" d="M 56.5,152.5 C 59.1268,152.293 60.7935,153.46 61.5,156C 59.2773,160.729 57.2773,165.562 55.5,170.5C 50.9811,172.588 49.1477,171.254 50,166.5C 51.9237,161.656 54.0904,156.99 56.5,152.5 Z"/></g>
<g><path style="opacity:1" fill="#6b6b6b" d="M 289.5,173.5 C 288.833,174.833 287.833,175.833 286.5,176.5C 286.423,175.25 285.756,174.417 284.5,174C 281.304,173.195 278.304,173.362 275.5,174.5C 274.29,174.068 273.29,173.401 272.5,172.5C 274.132,171.554 275.799,170.554 277.5,169.5C 280.443,170.244 283.443,170.744 286.5,171C 287.373,172.045 288.373,172.878 289.5,173.5 Z"/></g>
<g><path style="opacity:1" fill="#343434" d="M 286.5,176.5 C 283.15,176.665 279.817,176.498 276.5,176C 275.944,175.617 275.611,175.117 275.5,174.5C 278.304,173.362 281.304,173.195 284.5,174C 285.756,174.417 286.423,175.25 286.5,176.5 Z"/></g>
<g><path style="opacity:1" fill="#232323" d="M 395.5,168.5 C 397.722,168.178 399.556,168.845 401,170.5C 403.524,175.9 404.691,181.567 404.5,187.5C 402.533,187.739 400.699,187.406 399,186.5C 397.601,181.47 396.101,176.47 394.5,171.5C 394.685,170.416 395.018,169.416 395.5,168.5 Z"/></g>
<g><path style="opacity:1" fill="#252525" d="M 53.5,182.5 C 56.2724,182.22 58.7724,182.887 61,184.5C 62.9131,187.826 64.4131,191.326 65.5,195C 57.0339,200.069 48.0339,203.736 38.5,206C 35.0884,201.146 34.2551,195.979 36,190.5C 41.8488,187.656 47.6821,184.989 53.5,182.5 Z"/></g>
<g><path style="opacity:1" fill="#232323" d="M 190.5,187.5 C 194.515,191.356 198.015,195.689 201,200.5C 204.515,210.335 201.182,216.002 191,217.5C 184.113,217.115 180.28,213.448 179.5,206.5C 181.91,199.427 185.576,193.094 190.5,187.5 Z"/></g>
<g><path style="opacity:1" fill="#252525" d="M 403.5,197.5 C 405.722,197.178 407.556,197.845 409,199.5C 410.101,205.2 410.268,210.866 409.5,216.5C 407.602,217.734 405.935,217.401 404.5,215.5C 403.069,209.465 402.736,203.465 403.5,197.5 Z"/></g>
<g><path style="opacity:1" fill="#242424" d="M 250.5,187.5 C 256.701,192.399 261.034,198.733 263.5,206.5C 261.346,215.581 255.679,219.081 246.5,217C 241.162,213.491 239.328,208.658 241,202.5C 244.177,197.472 247.344,192.472 250.5,187.5 Z"/></g>
<g><path style="opacity:1" fill="#212121" d="M 341.5,209.5 C 354.837,209.333 368.171,209.5 381.5,210C 384.167,212.667 384.167,215.333 381.5,218C 368.167,218.667 354.833,218.667 341.5,218C 338.885,215.093 338.885,212.26 341.5,209.5 Z"/></g>
<g><path style="opacity:1" fill="#dadada" d="M 439.5,290.5 C 439.5,263.167 439.5,235.833 439.5,208.5C 437.05,208.298 434.717,208.631 432.5,209.5C 434.635,207.631 437.302,206.964 440.5,207.5C 440.831,235.338 440.498,263.005 439.5,290.5 Z"/></g>
<g><path style="opacity:1" fill="#232323" d="M 112.5,250.5 C 112.084,253.638 111.917,256.638 112,259.5C 110.837,257.715 110.17,255.715 110,253.5C 109.259,254.641 108.425,254.641 107.5,253.5C 104.833,255.5 104.833,257.5 107.5,259.5C 104.955,261.791 105.455,263.458 109,264.5C 109.902,264.257 110.735,263.923 111.5,263.5C 110.684,271.832 111.851,279.832 115,287.5C 118.813,291.323 123.313,293.99 128.5,295.5C 125.898,297.81 122.898,299.643 119.5,301C 103.382,307.892 87.3817,315.059 71.5,322.5C 69.9581,326.456 71.2915,328.289 75.5,328C 94.8932,319.047 114.227,310.214 133.5,301.5C 143.788,323.68 153.122,346.347 161.5,369.5C 160.73,376.438 156.897,380.105 150,380.5C 145.271,378.007 140.604,378.007 136,380.5C 135.27,385.155 132.77,388.321 128.5,390C 123.382,390.398 118.382,390.065 113.5,389C 110.422,390.526 108.588,393.026 108,396.5C 102.078,403.077 96.0777,403.077 90,396.5C 88.6377,392.942 87.1377,389.442 85.5,386C 86.3557,384.405 87.6891,383.572 89.5,383.5C 108.024,375.073 126.69,366.906 145.5,359C 148.442,356.048 147.942,353.881 144,352.5C 133.304,357.268 122.47,361.601 111.5,365.5C 102.869,369.827 94.2019,374.16 85.5,378.5C 83.8762,378.64 82.7096,377.973 82,376.5C 75.39,360.947 69.0567,345.28 63,329.5C 62.3333,326.833 62.3333,324.167 63,321.5C 67.9797,312.602 67.6463,303.935 62,295.5C 58.1174,291.95 53.9507,288.783 49.5,286C 40.0176,277.221 35.8509,266.387 37,253.5C 41.9452,240.608 46.6119,227.608 51,214.5C 54.9831,213.26 58.8165,211.594 62.5,209.5C 75.2765,216.81 88.2765,223.644 101.5,230C 107.663,235.492 111.33,242.326 112.5,250.5 Z"/></g>
<g><path style="opacity:1" fill="#232323" d="M 377.5,228.5 C 377.832,239.187 377.499,249.854 376.5,260.5C 365.955,255.786 359.955,259.119 358.5,270.5C 354.069,270.769 349.735,270.436 345.5,269.5C 344.174,255.994 344.174,242.328 345.5,228.5C 356.196,227.169 366.863,227.169 377.5,228.5 Z"/></g>
<g><path style="opacity:1" fill="#6d6d6d" d="M 413.5,261.5 C 413.5,253.833 413.5,246.167 413.5,238.5C 404.167,238.5 394.833,238.5 385.5,238.5C 385.5,246.167 385.5,253.833 385.5,261.5C 384.508,253.684 384.174,245.684 384.5,237.5C 394.5,237.5 404.5,237.5 414.5,237.5C 414.826,245.684 414.492,253.684 413.5,261.5 Z"/></g>
<g><path style="opacity:1" fill="#222222" d="M 321.5,238.5 C 326.833,238.5 332.167,238.5 337.5,238.5C 337.5,246.167 337.5,253.833 337.5,261.5C 320.296,259.705 312.296,267.372 313.5,284.5C 305.833,284.5 298.167,284.5 290.5,284.5C 288.183,265.973 294.849,251.806 310.5,242C 314.009,240.241 317.675,239.074 321.5,238.5 Z"/></g>
<g><path style="opacity:1" fill="#979797" d="M 321.5,238.5 C 326.975,237.511 332.642,237.178 338.5,237.5C 338.826,245.684 338.492,253.684 337.5,261.5C 337.5,253.833 337.5,246.167 337.5,238.5C 332.167,238.5 326.833,238.5 321.5,238.5 Z"/></g>
<g><path style="opacity:1" fill="#222222" d="M 413.5,261.5 C 404.167,261.5 394.833,261.5 385.5,261.5C 385.5,253.833 385.5,246.167 385.5,238.5C 394.833,238.5 404.167,238.5 413.5,238.5C 413.5,246.167 413.5,253.833 413.5,261.5 Z"/></g>
<g><path style="opacity:1" fill="#242424" d="M 220.5,228.5 C 222.017,228.511 223.184,229.177 224,230.5C 225.421,233.009 227.088,235.343 229,237.5C 234.134,244.559 233.634,251.059 227.5,257C 213.514,260.012 208.348,254.512 212,240.5C 214.664,236.343 217.497,232.343 220.5,228.5 Z"/></g>
<g><path style="opacity:1" fill="#222222" d="M 439.5,290.5 C 431.045,289.69 425.212,285.356 422,277.5C 421.333,258.5 421.333,239.5 422,220.5C 423.655,215.013 427.155,211.346 432.5,209.5C 434.717,208.631 437.05,208.298 439.5,208.5C 439.5,235.833 439.5,263.167 439.5,290.5 Z"/></g>
<g><path style="opacity:1" fill="#444444" d="M 112.5,250.5 C 113.16,251.964 113.493,253.631 113.5,255.5C 113.618,258.486 112.952,261.152 111.5,263.5C 110.735,263.923 109.902,264.257 109,264.5C 105.455,263.458 104.955,261.791 107.5,259.5C 104.833,257.5 104.833,255.5 107.5,253.5C 108.425,254.641 109.259,254.641 110,253.5C 110.17,255.715 110.837,257.715 112,259.5C 111.917,256.638 112.084,253.638 112.5,250.5 Z"/></g>
<g><path style="opacity:1" fill="#696969" d="M 377.5,228.5 C 378.833,242.167 378.833,255.833 377.5,269.5C 378.06,263.757 375.393,261.091 369.5,261.5C 364.101,261.92 361.767,264.92 362.5,270.5C 361.167,270.5 359.833,270.5 358.5,270.5C 359.955,259.119 365.955,255.786 376.5,260.5C 377.499,249.854 377.832,239.187 377.5,228.5 Z"/></g>
<g><path style="opacity:1" fill="#272727" d="M 377.5,269.5 C 375.049,263.61 371.049,262.277 365.5,265.5C 364.691,267.071 364.357,268.738 364.5,270.5C 363.833,270.5 363.167,270.5 362.5,270.5C 361.767,264.92 364.101,261.92 369.5,261.5C 375.393,261.091 378.06,263.757 377.5,269.5 Z"/></g>
<g><path style="opacity:1" fill="#6e6e6e" d="M 377.5,269.5 C 377.5,270.167 377.167,270.5 376.5,270.5C 375.833,270.5 375.167,270.5 374.5,270.5C 371.476,263.995 369.143,263.995 367.5,270.5C 366.5,270.5 365.5,270.5 364.5,270.5C 364.357,268.738 364.691,267.071 365.5,265.5C 371.049,262.277 375.049,263.61 377.5,269.5 Z"/></g>
<g><path style="opacity:1" fill="#2c2c2c" d="M 374.5,270.5 C 372.167,270.5 369.833,270.5 367.5,270.5C 369.143,263.995 371.476,263.995 374.5,270.5 Z"/></g>
<g><path style="opacity:1" fill="#cbcbcb" d="M 345.5,269.5 C 349.735,270.436 354.069,270.769 358.5,270.5C 359.833,270.5 361.167,270.5 362.5,270.5C 363.167,270.5 363.833,270.5 364.5,270.5C 365.5,270.5 366.5,270.5 367.5,270.5C 369.833,270.5 372.167,270.5 374.5,270.5C 375.167,270.5 375.833,270.5 376.5,270.5C 371.511,271.166 366.344,271.499 361,271.5C 355.454,271.495 350.288,270.828 345.5,269.5 Z"/></g>
<g><path style="opacity:1" fill="#454545" d="M 94.5,272.5 C 97.0217,272.128 99.0217,272.961 100.5,275C 95.5252,278.336 91.5252,282.002 88.5,286C 87.2068,286.49 85.8734,286.657 84.5,286.5C 84.259,283.001 85.0924,282.668 87,285.5C 87.4922,284.451 87.3256,283.451 86.5,282.5C 86.8457,281.304 87.3457,281.304 88,282.5C 88.3036,280.559 89.1369,278.893 90.5,277.5C 92.2059,277.101 93.7059,277.101 95,277.5C 94.9813,275.893 94.8146,274.226 94.5,272.5 Z"/></g>
<g><path style="opacity:1" fill="#252525" d="M 399.5,282.5 C 402.127,282.293 403.793,283.46 404.5,286C 402.667,290.833 400.833,295.667 399,300.5C 396.214,302.184 394.38,301.517 393.5,298.5C 394.544,292.686 396.544,287.353 399.5,282.5 Z"/></g>
<g><path style="opacity:1" fill="#f1f1f1" d="M 128.5,295.5 C 128.447,297.487 128.447,299.487 128.5,301.5C 130.188,301.458 131.854,301.458 133.5,301.5C 114.227,310.214 94.8932,319.047 75.5,328C 71.2915,328.289 69.9581,326.456 71.5,322.5C 87.3817,315.059 103.382,307.892 119.5,301C 122.898,299.643 125.898,297.81 128.5,295.5 Z"/></g>
<g><path style="opacity:1" fill="#242424" d="M 387.5,310.5 C 392.123,309.408 393.956,311.075 393,315.5C 391.088,319.66 388.921,323.66 386.5,327.5C 381.981,329.588 380.148,328.254 381,323.5C 383.705,319.423 385.872,315.09 387.5,310.5 Z"/></g>
<g><path style="opacity:1" fill="#242424" d="M 301.5,308.5 C 303.371,308.859 304.871,309.859 306,311.5C 313.152,319.975 318.319,329.475 321.5,340C 319.172,354.849 310.505,360.849 295.5,358C 282.065,349.606 279.899,338.773 289,325.5C 292.688,319.448 296.854,313.782 301.5,308.5 Z"/></g>
<g><path style="opacity:1" fill="#252525" d="M 372.5,336.5 C 377.637,335.463 379.303,337.296 377.5,342C 375.327,344.838 373.161,347.671 371,350.5C 366.875,354.92 364.541,354.254 364,348.5C 367.089,344.646 369.922,340.646 372.5,336.5 Z"/></g>
<g><path style="opacity:1" fill="#6a6a6a" d="M 111.5,365.5 C 110.167,365.5 109.5,364.833 109.5,363.5C 107.492,365.268 105.326,366.934 103,368.5C 94.5742,367.535 90.9075,362.868 92,354.5C 95.193,347.877 100.36,345.71 107.5,348C 113.89,352.529 115.223,358.362 111.5,365.5 Z"/></g>
<g><path style="opacity:1" fill="#262626" d="M 109.5,363.5 C 110.1,359.484 109.1,355.984 106.5,353C 100.166,351.671 97.3325,354.171 98,360.5C 99.8083,362.396 101.975,362.896 104.5,362C 105.93,360.12 105.596,358.62 103.5,357.5C 101.288,361.11 100.288,360.443 100.5,355.5C 107.264,355.031 108.931,357.698 105.5,363.5C 97.1348,365.3 93.9681,361.966 96,353.5C 100.295,349.674 104.795,349.507 109.5,353C 112.071,356.68 112.071,360.18 109.5,363.5 Z"/></g>
<g><path style="opacity:1" fill="#f1f1f1" d="M 89.5,383.5 C 88.5161,381.52 87.1827,379.853 85.5,378.5C 94.2019,374.16 102.869,369.827 111.5,365.5C 122.47,361.601 133.304,357.268 144,352.5C 147.942,353.881 148.442,356.048 145.5,359C 126.69,366.906 108.024,375.073 89.5,383.5 Z"/></g>
<g><path style="opacity:1" fill="#232323" d="M 354.5,358.5 C 358,358.495 359.5,360.162 359,363.5C 355.5,367 352,370.5 348.5,374C 342.88,375.386 341.38,373.552 344,368.5C 348.001,365.665 351.501,362.332 354.5,358.5 Z"/></g>
<g><path style="opacity:1" fill="#242424" d="M 331.5,378.5 C 335,378.495 336.5,380.162 336,383.5C 332.434,386.699 328.6,389.533 324.5,392C 320.494,392.987 318.661,391.487 319,387.5C 323.348,384.637 327.515,381.637 331.5,378.5 Z"/></g>
<g><path style="opacity:1" fill="#262626" d="M 306.5,393.5 C 311.028,393.841 312.361,396.008 310.5,400C 305.391,402.305 300.224,404.471 295,406.5C 294.228,406.355 293.561,406.022 293,405.5C 292.202,403.741 292.369,402.074 293.5,400.5C 298.086,398.378 302.419,396.044 306.5,393.5 Z"/></g>
<g><path style="opacity:1" fill="#262626" d="M 148.5,398.5 C 152.553,399.35 156.553,400.516 160.5,402C 163.115,402.795 165.115,404.295 166.5,406.5C 166.119,408.707 164.786,410.04 162.5,410.5C 157.475,408.493 152.475,406.493 147.5,404.5C 147.325,402.379 147.659,400.379 148.5,398.5 Z"/></g>
<g><path style="opacity:1" fill="#262626" d="M 176.5,408.5 C 181.54,409.011 186.54,409.844 191.5,411C 196.965,413.923 196.632,416.09 190.5,417.5C 185.415,416.985 180.582,415.651 176,413.5C 175.36,411.735 175.527,410.068 176.5,408.5 Z"/></g>
<g><path style="opacity:1" fill="#282828" d="M 276.5,405.5 C 283.19,404.331 284.857,406.497 281.5,412C 276.922,413.452 272.255,414.619 267.5,415.5C 264.014,414.875 263.014,413.042 264.5,410C 268.571,408.37 272.571,406.87 276.5,405.5 Z"/></g>
<g><path style="opacity:1" fill="#2f2f2f" d="M 205.5,413.5 C 211.176,413.334 216.843,413.501 222.5,414C 224.325,415.466 224.825,417.299 224,419.5C 218.584,420.639 213.084,420.806 207.5,420C 204.441,418.603 203.775,416.437 205.5,413.5 Z"/></g>
<g><path style="opacity:1" fill="#222222" d="M 243.5,412.5 C 246.85,412.335 250.183,412.502 253.5,413C 255.469,417.047 254.136,419.047 249.5,419C 244.833,419.667 240.167,419.667 235.5,419C 234.167,417.333 234.167,415.667 235.5,414C 238.365,413.817 241.031,413.317 243.5,412.5 Z"/></g>
</svg>
